<mxfile host="app.diagrams.net" modified="2022-11-30T16:48:48.957Z" agent="5.0 (Windows NT 10.0; Win64; x64) AppleWebKit/537.36 (KHTML, like Gecko) Chrome/107.0.0.0 Safari/537.36" etag="H3fsSZyp1OtAi55K8yC0" version="20.6.0" type="github">
  <diagram id="jHPnAUvbDJYtsTV62TXz" name="Page-1">
    <mxGraphModel dx="1571" dy="624" grid="1" gridSize="10" guides="1" tooltips="1" connect="1" arrows="1" fold="1" page="1" pageScale="1" pageWidth="827" pageHeight="1169" math="0" shadow="0">
      <root>
        <mxCell id="0" />
        <mxCell id="1" parent="0" />
        <mxCell id="Uqwm9wRIdumsvEmr9oCn-4" style="edgeStyle=orthogonalEdgeStyle;rounded=0;orthogonalLoop=1;jettySize=auto;html=1;exitX=0.5;exitY=1;exitDx=0;exitDy=0;entryX=0.5;entryY=0;entryDx=0;entryDy=0;" parent="1" source="Uqwm9wRIdumsvEmr9oCn-1" target="Uqwm9wRIdumsvEmr9oCn-2" edge="1">
          <mxGeometry relative="1" as="geometry" />
        </mxCell>
        <mxCell id="Uqwm9wRIdumsvEmr9oCn-1" value="Start" style="rounded=1;whiteSpace=wrap;html=1;fillColor=#A680B8;" parent="1" vertex="1">
          <mxGeometry x="120" y="240" width="110" height="30" as="geometry" />
        </mxCell>
        <mxCell id="Uqwm9wRIdumsvEmr9oCn-6" style="edgeStyle=orthogonalEdgeStyle;rounded=0;orthogonalLoop=1;jettySize=auto;html=1;exitX=1;exitY=0.5;exitDx=0;exitDy=0;entryX=0.5;entryY=0;entryDx=0;entryDy=0;" parent="1" source="Uqwm9wRIdumsvEmr9oCn-2" target="Uqwm9wRIdumsvEmr9oCn-3" edge="1">
          <mxGeometry relative="1" as="geometry" />
        </mxCell>
        <mxCell id="Uqwm9wRIdumsvEmr9oCn-51" style="edgeStyle=orthogonalEdgeStyle;rounded=0;orthogonalLoop=1;jettySize=auto;html=1;entryX=0.5;entryY=0;entryDx=0;entryDy=0;fontSize=10;" parent="1" target="Uqwm9wRIdumsvEmr9oCn-50" edge="1">
          <mxGeometry relative="1" as="geometry">
            <mxPoint x="160" y="320" as="sourcePoint" />
          </mxGeometry>
        </mxCell>
        <mxCell id="Uqwm9wRIdumsvEmr9oCn-2" value="Columns = 0 to 6" style="shape=hexagon;perimeter=hexagonPerimeter2;whiteSpace=wrap;html=1;fixedSize=1;fillColor=#FFD966;" parent="1" vertex="1">
          <mxGeometry x="105" y="290" width="140" height="40" as="geometry" />
        </mxCell>
        <mxCell id="Uqwm9wRIdumsvEmr9oCn-8" value="" style="edgeStyle=orthogonalEdgeStyle;rounded=0;orthogonalLoop=1;jettySize=auto;html=1;entryX=0.5;entryY=0;entryDx=0;entryDy=0;" parent="1" source="Uqwm9wRIdumsvEmr9oCn-3" target="Uqwm9wRIdumsvEmr9oCn-7" edge="1">
          <mxGeometry relative="1" as="geometry" />
        </mxCell>
        <mxCell id="Uqwm9wRIdumsvEmr9oCn-48" style="edgeStyle=orthogonalEdgeStyle;rounded=0;orthogonalLoop=1;jettySize=auto;html=1;fontSize=10;entryX=0.75;entryY=0;entryDx=0;entryDy=0;exitX=0.375;exitY=0;exitDx=0;exitDy=0;startArrow=none;" parent="1" source="Uqwm9wRIdumsvEmr9oCn-3" target="Uqwm9wRIdumsvEmr9oCn-47" edge="1">
          <mxGeometry relative="1" as="geometry">
            <mxPoint x="238" y="370" as="sourcePoint" />
            <mxPoint x="243" y="570" as="targetPoint" />
            <Array as="points">
              <mxPoint x="225" y="340" />
              <mxPoint x="225" y="370" />
              <mxPoint x="257" y="370" />
            </Array>
          </mxGeometry>
        </mxCell>
        <mxCell id="Uqwm9wRIdumsvEmr9oCn-3" value="Rows = 0 to 6" style="shape=hexagon;perimeter=hexagonPerimeter2;whiteSpace=wrap;html=1;fixedSize=1;fillColor=#FFD966;" parent="1" vertex="1">
          <mxGeometry x="200" y="340" width="140" height="40" as="geometry" />
        </mxCell>
        <mxCell id="Uqwm9wRIdumsvEmr9oCn-13" style="edgeStyle=orthogonalEdgeStyle;rounded=0;orthogonalLoop=1;jettySize=auto;html=1;exitX=0;exitY=0.5;exitDx=0;exitDy=0;entryX=0.5;entryY=0;entryDx=0;entryDy=0;fontSize=9;" parent="1" source="Uqwm9wRIdumsvEmr9oCn-7" target="Uqwm9wRIdumsvEmr9oCn-10" edge="1">
          <mxGeometry relative="1" as="geometry" />
        </mxCell>
        <mxCell id="Uqwm9wRIdumsvEmr9oCn-16" value="" style="edgeStyle=orthogonalEdgeStyle;rounded=0;orthogonalLoop=1;jettySize=auto;html=1;fontSize=9;startArrow=none;exitX=1;exitY=0.5;exitDx=0;exitDy=0;" parent="1" source="Uqwm9wRIdumsvEmr9oCn-7" target="Uqwm9wRIdumsvEmr9oCn-15" edge="1">
          <mxGeometry relative="1" as="geometry" />
        </mxCell>
        <mxCell id="Uqwm9wRIdumsvEmr9oCn-7" value="&lt;font style=&quot;font-size: 9px;&quot;&gt;If Board[Column, Row] == &#39;R&#39;&lt;/font&gt;" style="rhombus;whiteSpace=wrap;html=1;fillColor=#FF99FF;" parent="1" vertex="1">
          <mxGeometry x="540" y="390" width="120" height="100" as="geometry" />
        </mxCell>
        <mxCell id="Uqwm9wRIdumsvEmr9oCn-42" style="edgeStyle=orthogonalEdgeStyle;rounded=0;orthogonalLoop=1;jettySize=auto;html=1;exitX=0.5;exitY=1;exitDx=0;exitDy=0;entryX=1;entryY=0.5;entryDx=0;entryDy=0;fontSize=12;" parent="1" source="Uqwm9wRIdumsvEmr9oCn-9" target="Uqwm9wRIdumsvEmr9oCn-38" edge="1">
          <mxGeometry relative="1" as="geometry" />
        </mxCell>
        <mxCell id="Uqwm9wRIdumsvEmr9oCn-9" value="&lt;font size=&quot;3&quot;&gt;Output &quot;O&quot;&lt;/font&gt;" style="shape=parallelogram;perimeter=parallelogramPerimeter;whiteSpace=wrap;html=1;fixedSize=1;fontSize=9;fillColor=#FF99FF;" parent="1" vertex="1">
          <mxGeometry x="667.5" y="600" width="115" height="30" as="geometry" />
        </mxCell>
        <mxCell id="Uqwm9wRIdumsvEmr9oCn-14" style="edgeStyle=orthogonalEdgeStyle;rounded=0;orthogonalLoop=1;jettySize=auto;html=1;exitX=0;exitY=0.5;exitDx=0;exitDy=0;entryX=0.5;entryY=0;entryDx=0;entryDy=0;fontSize=9;" parent="1" source="Uqwm9wRIdumsvEmr9oCn-10" target="Uqwm9wRIdumsvEmr9oCn-11" edge="1">
          <mxGeometry relative="1" as="geometry" />
        </mxCell>
        <mxCell id="Uqwm9wRIdumsvEmr9oCn-21" style="edgeStyle=orthogonalEdgeStyle;rounded=0;orthogonalLoop=1;jettySize=auto;html=1;exitX=1;exitY=0.5;exitDx=0;exitDy=0;entryX=0.5;entryY=0;entryDx=0;entryDy=0;fontSize=12;startArrow=none;" parent="1" source="Uqwm9wRIdumsvEmr9oCn-10" target="Uqwm9wRIdumsvEmr9oCn-20" edge="1">
          <mxGeometry relative="1" as="geometry" />
        </mxCell>
        <mxCell id="Uqwm9wRIdumsvEmr9oCn-10" value="Else if Board[Column, row] == Y" style="rhombus;whiteSpace=wrap;html=1;fillColor=#FF99FF;fontSize=9;" parent="1" vertex="1">
          <mxGeometry x="410" y="460" width="120" height="100" as="geometry" />
        </mxCell>
        <mxCell id="Uqwm9wRIdumsvEmr9oCn-25" style="edgeStyle=orthogonalEdgeStyle;rounded=0;orthogonalLoop=1;jettySize=auto;html=1;exitX=1;exitY=0.5;exitDx=0;exitDy=0;entryX=0.5;entryY=0;entryDx=0;entryDy=0;fontSize=12;" parent="1" source="Uqwm9wRIdumsvEmr9oCn-11" target="Uqwm9wRIdumsvEmr9oCn-24" edge="1">
          <mxGeometry relative="1" as="geometry" />
        </mxCell>
        <mxCell id="Uqwm9wRIdumsvEmr9oCn-27" style="edgeStyle=orthogonalEdgeStyle;rounded=0;orthogonalLoop=1;jettySize=auto;html=1;exitX=0;exitY=0.5;exitDx=0;exitDy=0;entryX=0;entryY=0.5;entryDx=0;entryDy=0;fontSize=12;" parent="1" source="Uqwm9wRIdumsvEmr9oCn-11" target="Uqwm9wRIdumsvEmr9oCn-26" edge="1">
          <mxGeometry relative="1" as="geometry" />
        </mxCell>
        <mxCell id="Uqwm9wRIdumsvEmr9oCn-11" value="Else" style="rhombus;whiteSpace=wrap;html=1;fillColor=#FF99FF;fontSize=9;" parent="1" vertex="1">
          <mxGeometry x="320" y="550" width="120" height="100" as="geometry" />
        </mxCell>
        <mxCell id="Uqwm9wRIdumsvEmr9oCn-17" style="edgeStyle=orthogonalEdgeStyle;rounded=0;orthogonalLoop=1;jettySize=auto;html=1;exitX=0.5;exitY=1;exitDx=0;exitDy=0;entryX=0.5;entryY=0;entryDx=0;entryDy=0;fontSize=9;" parent="1" source="Uqwm9wRIdumsvEmr9oCn-15" target="Uqwm9wRIdumsvEmr9oCn-9" edge="1">
          <mxGeometry relative="1" as="geometry" />
        </mxCell>
        <mxCell id="Uqwm9wRIdumsvEmr9oCn-15" value="Change foreground colour to red" style="whiteSpace=wrap;html=1;fillColor=#FF99FF;" parent="1" vertex="1">
          <mxGeometry x="670" y="492.5" width="110" height="35" as="geometry" />
        </mxCell>
        <mxCell id="Uqwm9wRIdumsvEmr9oCn-23" style="edgeStyle=orthogonalEdgeStyle;rounded=0;orthogonalLoop=1;jettySize=auto;html=1;exitX=0.5;exitY=1;exitDx=0;exitDy=0;entryX=0.5;entryY=0;entryDx=0;entryDy=0;fontSize=12;" parent="1" source="Uqwm9wRIdumsvEmr9oCn-20" target="Uqwm9wRIdumsvEmr9oCn-22" edge="1">
          <mxGeometry relative="1" as="geometry" />
        </mxCell>
        <mxCell id="Uqwm9wRIdumsvEmr9oCn-20" value="Change foreground colour to Yellow" style="whiteSpace=wrap;html=1;fillColor=#FF99FF;" parent="1" vertex="1">
          <mxGeometry x="530" y="575" width="110" height="35" as="geometry" />
        </mxCell>
        <mxCell id="Uqwm9wRIdumsvEmr9oCn-37" style="edgeStyle=orthogonalEdgeStyle;rounded=0;orthogonalLoop=1;jettySize=auto;html=1;exitX=0.5;exitY=1;exitDx=0;exitDy=0;entryX=1;entryY=0.5;entryDx=0;entryDy=0;fontSize=12;" parent="1" source="Uqwm9wRIdumsvEmr9oCn-22" target="Uqwm9wRIdumsvEmr9oCn-33" edge="1">
          <mxGeometry relative="1" as="geometry" />
        </mxCell>
        <mxCell id="Uqwm9wRIdumsvEmr9oCn-22" value="&lt;font size=&quot;3&quot;&gt;Output &quot;O&quot;&lt;/font&gt;" style="shape=parallelogram;perimeter=parallelogramPerimeter;whiteSpace=wrap;html=1;fixedSize=1;fontSize=9;fillColor=#FF99FF;" parent="1" vertex="1">
          <mxGeometry x="525" y="640" width="115" height="30" as="geometry" />
        </mxCell>
        <mxCell id="Uqwm9wRIdumsvEmr9oCn-28" style="edgeStyle=orthogonalEdgeStyle;rounded=0;orthogonalLoop=1;jettySize=auto;html=1;exitX=0;exitY=0.5;exitDx=0;exitDy=0;entryX=1;entryY=0.5;entryDx=0;entryDy=0;fontSize=12;" parent="1" source="Uqwm9wRIdumsvEmr9oCn-24" target="Uqwm9wRIdumsvEmr9oCn-26" edge="1">
          <mxGeometry relative="1" as="geometry" />
        </mxCell>
        <mxCell id="Uqwm9wRIdumsvEmr9oCn-24" value="&lt;font size=&quot;3&quot;&gt;Output &quot; &quot;&lt;/font&gt;" style="shape=parallelogram;perimeter=parallelogramPerimeter;whiteSpace=wrap;html=1;fixedSize=1;fontSize=9;fillColor=#FF99FF;" parent="1" vertex="1">
          <mxGeometry x="410" y="680" width="115" height="30" as="geometry" />
        </mxCell>
        <mxCell id="Uqwm9wRIdumsvEmr9oCn-34" style="edgeStyle=orthogonalEdgeStyle;rounded=0;orthogonalLoop=1;jettySize=auto;html=1;exitX=0.5;exitY=1;exitDx=0;exitDy=0;entryX=0;entryY=0.5;entryDx=0;entryDy=0;fontSize=12;" parent="1" source="Uqwm9wRIdumsvEmr9oCn-26" target="Uqwm9wRIdumsvEmr9oCn-33" edge="1">
          <mxGeometry relative="1" as="geometry" />
        </mxCell>
        <mxCell id="Uqwm9wRIdumsvEmr9oCn-26" value="" style="ellipse;whiteSpace=wrap;html=1;aspect=fixed;fontSize=12;fillColor=#FF99FF;" parent="1" vertex="1">
          <mxGeometry x="375" y="690" width="10" height="10" as="geometry" />
        </mxCell>
        <mxCell id="Uqwm9wRIdumsvEmr9oCn-39" style="edgeStyle=orthogonalEdgeStyle;rounded=0;orthogonalLoop=1;jettySize=auto;html=1;exitX=0.5;exitY=1;exitDx=0;exitDy=0;entryX=0;entryY=0.5;entryDx=0;entryDy=0;fontSize=12;" parent="1" source="Uqwm9wRIdumsvEmr9oCn-33" target="Uqwm9wRIdumsvEmr9oCn-38" edge="1">
          <mxGeometry relative="1" as="geometry" />
        </mxCell>
        <mxCell id="Uqwm9wRIdumsvEmr9oCn-33" value="" style="ellipse;whiteSpace=wrap;html=1;aspect=fixed;fontSize=12;fillColor=#FF99FF;" parent="1" vertex="1">
          <mxGeometry x="480" y="730" width="10" height="10" as="geometry" />
        </mxCell>
        <mxCell id="Uqwm9wRIdumsvEmr9oCn-44" style="edgeStyle=orthogonalEdgeStyle;rounded=0;orthogonalLoop=1;jettySize=auto;html=1;exitX=0.5;exitY=1;exitDx=0;exitDy=0;entryX=0.5;entryY=0;entryDx=0;entryDy=0;fontSize=12;" parent="1" source="Uqwm9wRIdumsvEmr9oCn-38" target="Uqwm9wRIdumsvEmr9oCn-43" edge="1">
          <mxGeometry relative="1" as="geometry" />
        </mxCell>
        <mxCell id="Uqwm9wRIdumsvEmr9oCn-38" value="" style="ellipse;whiteSpace=wrap;html=1;aspect=fixed;fontSize=12;fillColor=#FF99FF;" parent="1" vertex="1">
          <mxGeometry x="595" y="760" width="10" height="10" as="geometry" />
        </mxCell>
        <mxCell id="Uqwm9wRIdumsvEmr9oCn-45" style="edgeStyle=orthogonalEdgeStyle;rounded=0;orthogonalLoop=1;jettySize=auto;html=1;exitX=0.5;exitY=1;exitDx=0;exitDy=0;entryX=0.625;entryY=1;entryDx=0;entryDy=0;fontSize=12;" parent="1" source="Uqwm9wRIdumsvEmr9oCn-43" target="Uqwm9wRIdumsvEmr9oCn-3" edge="1">
          <mxGeometry relative="1" as="geometry" />
        </mxCell>
        <mxCell id="Uqwm9wRIdumsvEmr9oCn-43" value="Change foreground colour to White" style="whiteSpace=wrap;html=1;fillColor=#FF99FF;" parent="1" vertex="1">
          <mxGeometry x="545" y="790" width="110" height="35" as="geometry" />
        </mxCell>
        <mxCell id="Uqwm9wRIdumsvEmr9oCn-49" style="edgeStyle=orthogonalEdgeStyle;rounded=0;orthogonalLoop=1;jettySize=auto;html=1;exitX=0.5;exitY=1;exitDx=0;exitDy=0;entryX=0.5;entryY=1;entryDx=0;entryDy=0;fontSize=10;" parent="1" source="Uqwm9wRIdumsvEmr9oCn-47" target="Uqwm9wRIdumsvEmr9oCn-2" edge="1">
          <mxGeometry relative="1" as="geometry">
            <Array as="points">
              <mxPoint x="235" y="605" />
              <mxPoint x="175" y="605" />
            </Array>
          </mxGeometry>
        </mxCell>
        <mxCell id="Uqwm9wRIdumsvEmr9oCn-47" value="&lt;font style=&quot;font-size: 10px;&quot;&gt;Output &quot;&quot; (drop a line)&lt;/font&gt;" style="shape=parallelogram;perimeter=parallelogramPerimeter;whiteSpace=wrap;html=1;fixedSize=1;fontSize=9;fillColor=#FF99FF;" parent="1" vertex="1">
          <mxGeometry x="190" y="555" width="90" height="30" as="geometry" />
        </mxCell>
        <mxCell id="Uqwm9wRIdumsvEmr9oCn-50" value="End" style="rounded=1;whiteSpace=wrap;html=1;fillColor=#A680B8;" parent="1" vertex="1">
          <mxGeometry x="105" y="820" width="110" height="30" as="geometry" />
        </mxCell>
        <UserObject label="Next&lt;span style=&quot;color: rgba(0, 0, 0, 0); font-family: monospace; font-size: 0px; text-align: start;&quot;&gt;%3CmxGraphModel%3E%3Croot%3E%3CmxCell%20id%3D%220%22%2F%3E%3CmxCell%20id%3D%221%22%20parent%3D%220%22%2F%3E%3CmxCell%20id%3D%222%22%20value%3D%22Start%22%20style%3D%22rounded%3D1%3BwhiteSpace%3Dwrap%3Bhtml%3D1%3BfillColor%3D%23A680B8%3B%22%20vertex%3D%221%22%20parent%3D%221%22%3E%3CmxGeometry%20x%3D%22120%22%20y%3D%22240%22%20width%3D%22110%22%20height%3D%2230%22%20as%3D%22geometry%22%2F%3E%3C%2FmxCell%3E%3C%2Froot%3E%3C%2FmxGraphModel%3E&lt;/span&gt;" placeholders="1" name="Variable" id="Uqwm9wRIdumsvEmr9oCn-52">
          <mxCell style="text;html=1;strokeColor=none;fillColor=none;align=center;verticalAlign=middle;whiteSpace=wrap;overflow=hidden;fontSize=10;" parent="1" vertex="1">
            <mxGeometry x="240" y="290" width="80" height="20" as="geometry" />
          </mxCell>
        </UserObject>
        <UserObject label="Next&lt;span style=&quot;color: rgba(0, 0, 0, 0); font-family: monospace; font-size: 0px; text-align: start;&quot;&gt;%3CmxGraphModel%3E%3Croot%3E%3CmxCell%20id%3D%220%22%2F%3E%3CmxCell%20id%3D%221%22%20parent%3D%220%22%2F%3E%3CmxCell%20id%3D%222%22%20value%3D%22Start%22%20style%3D%22rounded%3D1%3BwhiteSpace%3Dwrap%3Bhtml%3D1%3BfillColor%3D%23A680B8%3B%22%20vertex%3D%221%22%20parent%3D%221%22%3E%3CmxGeometry%20x%3D%22120%22%20y%3D%22240%22%20width%3D%22110%22%20height%3D%2230%22%20as%3D%22geometry%22%2F%3E%3C%2FmxCell%3E%3C%2Froot%3E%3C%2FmxGraphModel%3E&lt;/span&gt;" placeholders="1" name="Variable" id="Uqwm9wRIdumsvEmr9oCn-53">
          <mxCell style="text;html=1;strokeColor=none;fillColor=none;align=center;verticalAlign=middle;whiteSpace=wrap;overflow=hidden;fontSize=10;" parent="1" vertex="1">
            <mxGeometry x="320" y="340" width="80" height="20" as="geometry" />
          </mxCell>
        </UserObject>
        <UserObject label="True" placeholders="1" name="Variable" id="Uqwm9wRIdumsvEmr9oCn-54">
          <mxCell style="text;html=1;strokeColor=none;fillColor=none;align=center;verticalAlign=middle;whiteSpace=wrap;overflow=hidden;fontSize=10;" parent="1" vertex="1">
            <mxGeometry x="655" y="420" width="80" height="20" as="geometry" />
          </mxCell>
        </UserObject>
        <UserObject label="True" placeholders="1" name="Variable" id="Uqwm9wRIdumsvEmr9oCn-56">
          <mxCell style="text;html=1;strokeColor=none;fillColor=none;align=center;verticalAlign=middle;whiteSpace=wrap;overflow=hidden;fontSize=10;" parent="1" vertex="1">
            <mxGeometry x="530" y="490" width="80" height="20" as="geometry" />
          </mxCell>
        </UserObject>
        <UserObject label="True" placeholders="1" name="Variable" id="Uqwm9wRIdumsvEmr9oCn-58">
          <mxCell style="text;html=1;strokeColor=none;fillColor=none;align=center;verticalAlign=middle;whiteSpace=wrap;overflow=hidden;fontSize=10;" parent="1" vertex="1">
            <mxGeometry x="427.5" y="575" width="80" height="20" as="geometry" />
          </mxCell>
        </UserObject>
        <UserObject label="False" placeholders="1" name="Variable" id="Uqwm9wRIdumsvEmr9oCn-59">
          <mxCell style="text;html=1;strokeColor=none;fillColor=none;align=center;verticalAlign=middle;whiteSpace=wrap;overflow=hidden;fontSize=10;" parent="1" vertex="1">
            <mxGeometry x="465" y="410" width="80" height="20" as="geometry" />
          </mxCell>
        </UserObject>
        <UserObject label="False" placeholders="1" name="Variable" id="Uqwm9wRIdumsvEmr9oCn-60">
          <mxCell style="text;html=1;strokeColor=none;fillColor=none;align=center;verticalAlign=middle;whiteSpace=wrap;overflow=hidden;fontSize=10;" parent="1" vertex="1">
            <mxGeometry x="360" y="480" width="80" height="20" as="geometry" />
          </mxCell>
        </UserObject>
        <UserObject label="False" placeholders="1" name="Variable" id="Uqwm9wRIdumsvEmr9oCn-62">
          <mxCell style="text;html=1;strokeColor=none;fillColor=none;align=center;verticalAlign=middle;whiteSpace=wrap;overflow=hidden;fontSize=10;" parent="1" vertex="1">
            <mxGeometry x="290" y="565" width="80" height="20" as="geometry" />
          </mxCell>
        </UserObject>
        <UserObject label="Done" placeholders="1" name="Variable" id="Uqwm9wRIdumsvEmr9oCn-64">
          <mxCell style="text;html=1;strokeColor=none;fillColor=none;align=center;verticalAlign=middle;whiteSpace=wrap;overflow=hidden;fontSize=10;" parent="1" vertex="1">
            <mxGeometry x="195" y="400" width="80" height="20" as="geometry" />
          </mxCell>
        </UserObject>
        <UserObject label="Done" placeholders="1" name="Variable" id="Uqwm9wRIdumsvEmr9oCn-67">
          <mxCell style="text;html=1;strokeColor=none;fillColor=none;align=center;verticalAlign=middle;whiteSpace=wrap;overflow=hidden;fontSize=10;" parent="1" vertex="1">
            <mxGeometry x="110" y="380" width="40" height="20" as="geometry" />
          </mxCell>
        </UserObject>
      </root>
    </mxGraphModel>
  </diagram>
</mxfile>
